<?xml version="1.0" encoding="UTF-8"?>
<svg version="1.1" xmlns="http://www.w3.org/2000/svg" width="512" height="512" viewBox="0 0 512 512">
<path d="M0 0 C168.96 0 337.92 0 512 0 C512 168.96 512 337.92 512 512 C343.04 512 174.08 512 0 512 C0 343.04 0 174.08 0 0 Z " fill="#009CEC" transform="translate(0,0)"/>
<path d="M0 0 C14.56850456 11.48246645 26.02006541 27.29512398 28.71484375 46.05078125 C28.83135999 47.65287959 28.90835099 49.25794524 28.96484375 50.86328125 C29.01640625 52.15492188 29.06796875 53.4465625 29.12109375 54.77734375 C29.67535018 75.16754096 22.89852013 93.49911285 8.83984375 108.55078125 C-6.57952933 123.10034354 -24.9713852 129.33121624 -45.86328125 129.08203125 C-55.80517 128.79069385 -65.24317002 126.58877294 -74.03515625 121.86328125 C-75.23205078 121.23292969 -75.23205078 121.23292969 -76.453125 120.58984375 C-92.82282705 111.40250709 -105.62835569 95.93123288 -111.03515625 77.86328125 C-116.04982761 56.74435099 -113.01261263 37.41243191 -102.03515625 18.86328125 C-91.32605992 2.7889062 -75.43466244 -7.91249265 -56.75 -12.2890625 C-36.82774405 -16.26853416 -16.55427258 -11.65403745 0 0 Z " fill="#019CEC" transform="translate(298.03515625,120.13671875)"/>
<path d="M0 0 C3.62763593 2.62424727 4.83514312 3.99254127 5.5625 8.4375 C4.55723718 14.8041645 -0.06704785 19.48961543 -4 24.4375 C-4.71567139 25.34375122 -4.71567139 25.34375122 -5.44580078 26.26831055 C-8.41152726 30.0177189 -11.40131401 33.74744507 -14.39672852 37.47314453 C-19.70122423 44.07332136 -24.90736655 50.7381399 -30.02099609 57.48754883 C-30.51035645 58.13232178 -30.9997168 58.77709473 -31.50390625 59.44140625 C-31.99484268 60.12581787 -32.48577911 60.81022949 -32.99159241 61.51538086 C-35 64 -35 64 -37.70838928 66.3568573 C-44.71173198 72.86283926 -46.67726828 79.181628 -47.17795467 88.6485033 C-47.34836776 95.22414093 -47.27276645 101.79420413 -47.15260458 108.36991787 C-47.09276299 112.3649643 -47.10020987 116.35987326 -47.10134888 120.35528564 C-47.09439692 127.91193446 -47.0359843 135.46714009 -46.95488274 143.02332425 C-46.81042454 156.55478747 -46.73585635 170.08653576 -46.70789826 183.61872125 C-46.69582403 188.358309 -46.65528531 193.09652326 -46.59084773 197.83567858 C-46.55507882 200.78937252 -46.53979868 203.74294026 -46.52928734 206.69682121 C-46.51564811 208.70121466 -46.47663222 210.70538622 -46.43663025 212.70942688 C-46.43268123 220.57505153 -47.51261999 226.4280643 -52 233 C-57.31180041 238.31180041 -62.86561166 240.37434352 -70.31137085 240.38095093 C-71.02547454 240.3856309 -71.73957822 240.39031087 -72.47532141 240.39513266 C-74.85662337 240.40705242 -77.2373466 240.39763752 -79.61865234 240.38818359 C-81.33067662 240.39225072 -83.04269827 240.39759339 -84.75471497 240.40411377 C-89.39737633 240.41777847 -94.03983745 240.41249166 -98.68250227 240.40297651 C-103.54612226 240.39537309 -108.40972528 240.40242765 -113.27334595 240.40713501 C-121.44267855 240.41259161 -129.61192976 240.40540454 -137.78125 240.39111328 C-147.21638088 240.37479789 -156.65131716 240.38006759 -166.08644331 240.3965925 C-174.19449474 240.41022313 -182.30248771 240.41211898 -190.4105469 240.40427649 C-195.24981856 240.39960724 -200.08899888 240.39895431 -204.92826462 240.40888596 C-209.48048405 240.4175759 -214.03245367 240.41149673 -218.58464622 240.39420319 C-220.25189614 240.39024869 -221.91916722 240.39135457 -223.58640862 240.39799118 C-241.84038253 240.46393232 -241.84038253 240.46393232 -248.2421875 235.1328125 C-248.78101563 234.47023438 -249.31984375 233.80765625 -249.875 233.125 C-250.42929688 232.46757812 -250.98359375 231.81015625 -251.5546875 231.1328125 C-254.48794795 226.80427141 -255.24707174 223.15592247 -255.19099426 217.96366882 C-255.17955887 216.14534294 -255.17955887 216.14534294 -255.16789246 214.2902832 C-255.14952576 212.95483287 -255.13107506 211.61938368 -255.11254883 210.28393555 C-255.10055769 208.87076145 -255.08963967 207.45757791 -255.07971191 206.04438782 C-255.05734449 203.00346376 -255.02990728 199.96264112 -254.99930763 196.92178917 C-254.95337335 192.09890466 -254.93451727 187.27615369 -254.92228699 182.45307922 C-254.9201206 181.63729281 -254.91795422 180.82150639 -254.91572219 179.98099917 C-254.91138686 178.31272083 -254.90713443 176.64444227 -254.90296304 174.97616351 C-254.874257 163.7536731 -254.8301744 152.53214709 -254.7019043 141.31030273 C-254.61549937 133.7335583 -254.57599075 126.15812144 -254.58915728 118.58087569 C-254.59429962 114.5784576 -254.57662062 110.57924072 -254.50144386 106.57745934 C-253.54296498 86.09919806 -253.54296498 86.09919806 -262.26831055 68.33129883 C-263.92361142 66.6465244 -265.61533902 65.05460395 -267.39064598 63.49733925 C-270.01369217 61.05686315 -272.00330124 58.25715192 -274.125 55.375 C-282.38710687 44.55430519 -290.85481515 33.89870453 -299.37109375 23.27734375 C-299.8182373 22.7157959 -300.26538086 22.15424805 -300.72607422 21.57568359 C-301.88428851 20.14312035 -303.08271807 18.74330672 -304.28515625 17.34765625 C-306.90101126 13.76649711 -307.35680577 10.3768175 -307 6 C-305.23496686 3.07856583 -304.04152365 1.52076183 -301 0 C-296.55746958 -0.60975908 -294.53876423 -0.35226892 -290.75 2.125 C-285.72099383 6.90704605 -281.6340879 12.62141254 -277.43505859 18.12548828 C-275.17049852 21.0835169 -272.86670225 24.01031589 -270.5625 26.9375 C-270.11165039 27.51177734 -269.66080078 28.08605469 -269.19628906 28.67773438 C-265.82192535 32.97151071 -262.41555044 37.23895093 -259 41.5 C-257.99729628 42.75382664 -256.99469183 44.00773268 -255.9921875 45.26171875 C-254.49742805 47.13138688 -253.00063189 48.99921723 -251.49707031 50.86181641 C-250.03418883 52.67435055 -248.57907501 54.49289784 -247.125 56.3125 C-246.48304688 57.10140625 -246.48304688 57.10140625 -245.828125 57.90625 C-244.50328259 59.57258906 -243.25233054 61.27841099 -242 63 C-241.49301008 63.66532179 -240.98602016 64.33064358 -240.46366692 65.01612663 C-235.39801771 72.3735821 -235.14438102 78.91577966 -235.22705078 87.62939453 C-235.2188507 89.10243779 -235.20802889 90.57546838 -235.19482231 92.04847527 C-235.16684192 95.9660539 -235.17438284 99.88278265 -235.18968201 103.80039978 C-235.19858109 107.48681682 -235.17491329 111.17275717 -235.15405273 114.85913086 C-235.11191979 125.61434241 -235.12157205 136.36970647 -235.125 147.125 C-235.08375 171.17375 -235.0425 195.2225 -235 220 C-179.89 220 -124.78 220 -68 220 C-67.86910245 172.73076021 -67.86910245 172.73076021 -67.79223633 125.46142578 C-67.75134277 116.30249023 -67.75134277 116.30249023 -67.72587585 112.00973511 C-67.70985395 109.02257272 -67.70767351 106.0357505 -67.71403503 103.04855347 C-67.72170837 99.22901483 -67.70528552 95.41026884 -67.67198312 91.59087539 C-67.66380976 90.19489885 -67.66384698 88.79884207 -67.67339098 87.40287423 C-67.75167857 74.75624203 -64.11825536 66.87410452 -56 57.4375 C-54.8415317 56.05263389 -53.68535101 54.66585151 -52.53125 53.27734375 C-51.65146484 52.22135986 -51.65146484 52.22135986 -50.75390625 51.14404297 C-47.90931931 47.66670965 -45.2066671 44.08503856 -42.5 40.5 C-37.70692875 34.17430265 -32.79032 27.96914171 -27.75195312 21.8371582 C-25.08900457 18.59158829 -22.46405168 15.32754076 -19.9140625 11.9921875 C-19.42244629 11.35176514 -18.93083008 10.71134277 -18.42431641 10.05151367 C-17.50532198 8.84881871 -16.59300649 7.64097668 -15.68896484 6.42700195 C-11.11116829 0.44978924 -7.52921745 -2.15120499 0 0 Z " fill="#FCFEFE" transform="translate(407,169)"/>
<path d="M0 0 C14.56850456 11.48246645 26.02006541 27.29512398 28.71484375 46.05078125 C28.83135999 47.65287959 28.90835099 49.25794524 28.96484375 50.86328125 C29.01640625 52.15492188 29.06796875 53.4465625 29.12109375 54.77734375 C29.67535018 75.16754096 22.89852013 93.49911285 8.83984375 108.55078125 C-6.57952933 123.10034354 -24.9713852 129.33121624 -45.86328125 129.08203125 C-55.80517 128.79069385 -65.24317002 126.58877294 -74.03515625 121.86328125 C-75.23205078 121.23292969 -75.23205078 121.23292969 -76.453125 120.58984375 C-92.82282705 111.40250709 -105.62835569 95.93123288 -111.03515625 77.86328125 C-116.04982761 56.74435099 -113.01261263 37.41243191 -102.03515625 18.86328125 C-91.32605992 2.7889062 -75.43466244 -7.91249265 -56.75 -12.2890625 C-36.82774405 -16.26853416 -16.55427258 -11.65403745 0 0 Z M-82 24.42578125 C-90.62208237 34.75242117 -94.86285045 48.02153226 -94.41796875 61.3828125 C-92.88790418 75.29390975 -86.32353448 88.76481871 -75.66796875 97.890625 C-63.59248359 107.28850258 -51.10208161 110.71612608 -36.03515625 109.86328125 C-21.63395295 107.76532818 -9.21165974 100.97229494 -0.48120117 89.34228516 C7.77886499 77.83315847 11.11639021 64.96150007 9.96484375 50.86328125 C7.30244557 36.47670798 0.29635908 25.10451706 -11.03515625 15.86328125 C-35.00406366 0.47301965 -62.42713832 3.98991862 -82 24.42578125 Z " fill="#FBFDFE" transform="translate(298.03515625,120.13671875)"/>
</svg>
