<svg xmlns="http://www.w3.org/2000/svg" viewBox="0 -2.1 2048 1610.2" fill="none" role="img" aria-label="Kululu">
  <path transform="translate(0,0)" fill="#4b5563" d="M 1577.53 598.418 C 1623.01 594.234 1660.34 608.713 1665.59 657.985 C 1667.9 679.67 1669.37 692.343 1655.94 710.698 C 1640.17 717.197 1622.99 721.937 1607 727.893 C 1570.73 741.399 1537.88 754.186 1502.65 770.481 C 1473.86 784.137 1445.88 799.418 1418.83 816.249 C 1299.57 889.756 1196.78 987.091 1116.88 1102.16 C 1105.57 1119.48 1092.97 1148.72 1082.39 1161.83 C 1099.61 1055.63 1134.19 969.006 1190.69 877.26 C 1238.69 799.307 1296.65 729.088 1373.99 677.993 C 1437.42 636.081 1500.92 605.124 1577.53 598.418 z"/>
  <path transform="translate(0,0)" fill="#9ca3af" d="M 153.016 627.353 C 200.481 621.588 280.99 634.265 327.965 646.073 C 337.555 648.322 347.693 653.172 356.984 655.769 C 412.79 671.443 460.988 696.827 509.63 727.575 C 538.206 745.639 564.848 769.268 591.489 790.222 C 638.722 827.373 675.837 879.697 707.616 930.222 C 712.859 938.556 719.584 947.143 724.158 955.738 C 733.935 973.741 741.449 992.883 746.526 1012.73 C 737.654 1006.33 725.568 995.638 716.55 988.408 C 697.223 973.219 677.801 958.15 658.286 943.203 C 633.5 924.19 614.772 911.743 587.83 895.932 C 570.437 885.725 557.225 882.214 541.008 873.754 C 450.856 826.725 351.8 793.379 250.259 783.199 C 211.461 779.438 165.835 785.924 129.149 765.021 C 120.347 760.006 112.503 739.259 110.919 729.707 C 107.682 702.689 99.6877 669.079 106.254 642.783 C 110.121 633.832 142.513 628.637 153.016 627.353 z"/>
  <path transform="translate(0,0)" fill="#d1d5db" d="M 1606.75 1064.49 C 1630.12 1063.56 1661.21 1066.25 1684.77 1070.14 C 1704.37 1074.08 1754.74 1074.64 1766.1 1092.21 C 1785.25 1121.83 1758.59 1183.19 1733.71 1201.67 C 1704.15 1203.4 1687.57 1196.82 1658.95 1192.62 C 1630.72 1188.49 1601.42 1186.45 1573 1183.72 C 1560.06 1182.1 1546.33 1186.63 1533.62 1186.59 C 1465.8 1186.39 1401.99 1206.87 1337.73 1225.85 C 1333.67 1227.05 1329 1228.24 1325.08 1229.76 C 1278.76 1247.68 1231.72 1267.62 1189.58 1294.11 C 1178.26 1301.38 1166.39 1306.63 1154.54 1314.72 L 1115.37 1341.99 C 1108.81 1346.65 1082.47 1366.7 1076.37 1364.92 C 1076.12 1363.89 1075.93 1363.35 1076.04 1362.29 C 1076.45 1358.5 1082.54 1349.92 1084.86 1346.67 C 1090.03 1339.42 1096.37 1326.72 1101.59 1320.26 C 1113.47 1305.54 1126.86 1289.99 1139.64 1276.06 C 1151.64 1262.98 1164.05 1248.5 1177.54 1237.24 C 1186.91 1229.42 1197.75 1222.95 1207.47 1215.31 C 1322.01 1125.39 1461.37 1072.76 1606.75 1064.49 z"/>
  <path transform="translate(0,0)" fill="#4b5563" d="M 456.735 236.324 C 474.03 232.276 500.495 242.339 516.656 248.987 C 574.122 272.623 629.055 328.067 665.182 377.699 C 742.504 484.703 787.049 624.292 782.867 756.503 C 782.522 767.398 785.217 818.683 779.457 822.671 C 777.246 820.414 772.761 792.563 770.153 785.317 C 766.207 761.472 753.085 723.483 743.683 701.09 C 720.666 646.268 694.563 588.275 660.544 539.438 C 613.029 471.227 547.785 416.151 483.461 364.438 C 480.409 361.985 476.082 359.867 472.785 357.686 C 448.863 344.547 428.141 330.293 406.394 313.997 C 401.025 294.11 405.059 273.205 417.312 256.279 C 427.642 242.009 440.129 238.716 456.735 236.324 z"/>
  <path transform="translate(0,0)" fill="#9ca3af" d="M 1465.57 1339.38 C 1472.66 1338.39 1490.64 1338.47 1497.94 1338.71 C 1548.46 1339.93 1592.73 1352.52 1639.54 1370.58 C 1661.21 1378.95 1684.19 1378.12 1691.75 1407.46 C 1696.15 1424.57 1687.43 1445.15 1678.07 1459.42 C 1668.5 1474.02 1648.17 1489.56 1632.93 1498.25 C 1626.45 1501.64 1612.5 1504.78 1604.97 1506.47 C 1585.64 1500.5 1552.79 1472.46 1534.24 1463.64 C 1510.5 1452.36 1469.96 1439.71 1444.25 1434.34 C 1414.28 1427.39 1395.5 1427.62 1365.3 1427.97 C 1340.91 1428.77 1315.83 1426.35 1291.58 1429.93 C 1262.55 1434.22 1232.64 1444.31 1203.58 1450.11 C 1195.08 1451.81 1183.97 1456.93 1174.78 1459.3 C 1195.09 1418.98 1281.17 1383.61 1322.32 1365.72 C 1360.49 1349.13 1423.95 1343.8 1465.57 1339.38 z"/>
  <path transform="translate(0,0)" fill="#9ca3af" d="M 324.068 1347.34 C 326.282 1347.06 329.574 1346.89 331.861 1346.99 C 399.554 1350.12 467.375 1364.9 531.552 1386.4 C 548.497 1392.08 571.892 1404.75 589.4 1411.65 C 602.168 1416.69 622.228 1437.71 634.097 1443.22 C 663.824 1457.04 675.485 1470.99 697.613 1493.17 L 697.361 1494.59 C 695.103 1495.3 693.105 1495.16 690.838 1494.42 C 662.272 1485.24 633.909 1473.56 604.925 1465.81 C 580.181 1459.19 553.303 1455.49 527.934 1451.25 C 491.839 1445.07 467.449 1443.05 431.293 1442.83 C 383.366 1440.69 337.954 1447.87 291.294 1457.29 C 272.605 1461.06 196.709 1491.41 185.218 1481.07 C 167.249 1464.9 135.027 1412.31 152.246 1386.55 C 164.909 1370.7 192.064 1366.85 208.586 1361.22 C 247.442 1347.95 285.757 1353.3 324.068 1347.34 z"/>
  <path transform="translate(0,0)" fill="#d1d5db" d="M 1418.33 81.2988 C 1437.14 78.8053 1446.83 101.688 1457.24 114.408 C 1469.85 129.829 1476.83 145.629 1481.42 164.849 C 1481.07 165.322 1480.72 165.794 1480.36 166.267 L 1479.79 166.981 C 1467.77 182.038 1373.14 224.897 1347.99 240.885 C 1291.25 276.954 1233.4 313.116 1181.69 356.952 C 1169.95 366.906 1157.66 376.287 1146.79 387.245 C 1141.09 393.21 1121.85 413.654 1115.38 416.052 L 1114.43 414.951 C 1117.13 389.156 1152.57 336.492 1166.29 310.695 C 1209.84 228.789 1280.86 161.54 1357.78 110.949 C 1378.25 97.4806 1394.82 86.672 1418.33 81.2988 z"/>
  <path transform="translate(0,0)" fill="#4b5563" d="M 1614.5 312.372 C 1627.55 310.616 1668.92 310.233 1679.41 318.185 C 1707.1 339.153 1693.37 419.333 1677.7 444.222 C 1651.96 450.328 1641.05 439.023 1619.33 437.674 C 1599.92 436.351 1579.94 437.662 1560.58 436.951 C 1500.74 434.753 1447.47 439.208 1390.17 458.745 C 1373.53 463.641 1356.86 470.003 1341.64 478.318 C 1337.18 480.755 1331.94 483.966 1327.15 485.375 C 1323.03 481.676 1325.16 473.001 1328.18 470.95 C 1342.65 461.139 1356.54 440.039 1367.96 430.306 C 1431.42 376.249 1531.4 321 1614.5 312.372 z"/>
  <path transform="translate(0,0)" fill="#d1d5db" d="M 987.536 693.35 C 1009.68 692.22 1029.46 697.187 1042.91 715.429 C 1045.5 748.75 1018.43 796.962 1007.72 829.104 C 1003.2 842.782 998.959 857.027 994.258 870.614 C 980.934 909.116 968.393 946.42 962.654 986.958 C 960.705 1000.73 954.493 1016.74 952.738 1030.81 C 949.953 1053.14 946.733 1076.95 946.122 1099.41 C 946.179 1109.79 946.21 1118.42 945.446 1128.77 C 931.49 1079.42 920.392 1019.5 914.63 968.536 C 907.971 909.64 915.928 842.321 924.281 783.842 C 926.106 771.072 929.464 746.247 933.278 735.15 C 935.652 728.344 939.171 721.994 943.683 716.373 C 955.913 701.008 968.635 695.584 987.536 693.35 z"/>
  <path transform="translate(0,0)" fill="#4b5563" d="M 689.121 40.8016 C 719.117 33.5963 749.336 51.8307 756.944 81.7272 C 764.553 111.624 746.727 142.085 716.936 150.096 C 697.305 155.375 676.352 149.679 662.094 135.189 C 647.836 120.698 642.481 99.6554 648.077 80.112 C 653.673 60.5686 669.354 45.5496 689.121 40.8016 z"/>
  <path transform="translate(0,0)" fill="#4b5563" d="M 1870.08 422.185 C 1898.32 415.68 1926.44 433.448 1932.69 461.742 C 1938.94 490.036 1920.93 518 1892.58 523.999 C 1864.59 529.923 1837.05 512.18 1830.87 484.241 C 1824.7 456.302 1842.2 428.608 1870.08 422.185 z"/>
  <path transform="translate(0,0)" fill="#4b5563" d="M 1140.44 532.908 C 1157.27 529.186 1174.8 534.821 1186.3 547.653 C 1197.81 560.485 1201.5 578.521 1195.97 594.844 C 1190.44 611.167 1176.55 623.242 1159.61 626.439 C 1133.99 631.276 1109.22 614.656 1103.99 589.109 C 1098.75 563.562 1114.98 538.54 1140.44 532.908 z"/>
  <path transform="translate(0,0)" fill="#4b5563" d="M 329.864 1160.87 C 354.927 1160.41 375.759 1180.07 376.746 1205.12 C 377.733 1230.17 358.511 1251.41 333.49 1252.92 C 316.831 1253.93 300.931 1245.84 291.926 1231.79 C 282.921 1217.74 282.219 1199.92 290.091 1185.2 C 297.963 1170.49 313.178 1161.18 329.864 1160.87 z"/>
  <path transform="translate(0,0)" fill="#4b5563" d="M 457.679 512.338 C 481.002 511.219 507.462 512.956 514.617 540.053 C 517.678 551.644 515.419 561.841 513.774 573.429 C 502.353 587.512 498.588 590.106 482.244 596.65 C 458.418 607.777 440.406 585.917 427.819 569.351 C 424.648 545.736 429.211 516.343 457.679 512.338 z"/>
  <path transform="translate(0,0)" fill="#4b5563" d="M 201.695 935.222 C 230.816 933.713 245.495 940.673 251.488 970.747 C 246.543 986.467 243.562 993.155 227.935 1000.09 C 216.728 1002.01 204.727 1001.32 193.524 999.902 C 188.522 992.612 184.24 987.175 181.358 978.708 C 178.267 969.642 179.009 959.706 183.414 951.2 C 186.53 945.2 195.232 937.107 201.695 935.222 z"/>
  <path transform="translate(0,0)" fill="#4b5563" d="M 1819.95 617.923 C 1828.11 617.412 1830.64 618.506 1838.06 621.317 C 1857.42 643.645 1855.04 652.416 1830.79 667.997 C 1820.06 671.475 1811.2 667.937 1804.64 658.252 C 1793.09 641.197 1804.73 626.726 1819.95 617.923 z"/>
  <path transform="translate(0,0)" fill="#d1d5db" d="M 271.668 465.458 C 273.905 464.641 280.972 466.426 282.882 467.558 C 292.215 473.088 295.009 483.409 297.791 492.67 C 291.548 503.599 285.564 510.791 274.451 516.436 C 258.055 514.498 238.339 490.3 251.901 474.594 C 259.138 466.215 261.568 466.851 271.668 465.458 z"/>
  <path transform="translate(0,0)" fill="#d1d5db" d="M 1948.69 667.261 C 1955.53 666.703 1961.1 666.012 1967.19 670.57 C 1976.82 677.783 1978.02 697.519 1970.66 706.591 C 1968.76 708.926 1961.49 708.842 1958.32 709.015 C 1947.89 709.231 1939.77 709.315 1934.27 698.265 C 1931.9 693.392 1931.58 687.772 1933.39 682.663 C 1935.95 675.273 1941.98 670.616 1948.69 667.261 z"/>
  <path transform="translate(0,0)" fill="#4b5563" d="M 902.682 1606 L 902.413 1605.11 C 900.643 1599.42 897.349 1590.99 894.996 1585.41 C 869.786 1525.63 840.402 1463.92 799.81 1412.88 C 780.686 1388.89 764.058 1365.27 743.792 1342.4 C 695.416 1292.52 647.696 1243.34 591.466 1202.19 C 560.327 1180.59 523.372 1162.45 496.982 1134.9 C 487.872 1125.39 499.127 1098.25 504.487 1087.82 C 548.547 1002.13 640.307 1089.31 687.646 1123.37 C 717.141 1144.6 739.907 1175.03 763.577 1202.22 C 818.205 1266.68 855.647 1347.53 878.766 1428.42 C 887.956 1460.57 894.758 1493.36 899.117 1526.51 C 900.842 1540.39 901.595 1554.77 902.864 1568.77 C 903.861 1579.78 908.3 1595.69 908.857 1606 L 902.682 1606 z"/>
  <path transform="translate(0,0)" fill="#9ca3af" d="M 2048 907.051 C 2038.56 914.472 2034.01 953.421 2018.9 956.609 C 2003.08 958.845 1982.94 953.055 1967.71 949.044 C 1874.72 924.551 1775.88 912.973 1679.76 917.123 C 1652.26 918.311 1622.13 925.142 1594.55 927.38 C 1585.27 928.133 1561.01 935.508 1555.02 930.287 C 1557.24 924.027 1592.12 905.727 1598.84 900.362 C 1622.26 881.668 1644.76 873.182 1671.93 862.281 C 1735.22 836.326 1803.36 824.291 1871.72 826.995 C 1912.96 828.503 2022.15 841.524 2048 872.974 L 2048 907.051 z"/>
  <path transform="translate(0,0)" fill="#9ca3af" d="M 1018.28 0 L 1036.74 0 C 1047.36 10.221 1065.21 13.7061 1073.79 26.176 C 1082.99 39.5566 1080.12 53.4927 1074.76 67.6042 C 1069.57 81.2421 1062.55 94.3778 1056.04 107.359 C 1039.6 139.898 1022.17 171.929 1003.79 203.408 C 988.794 229.23 973.807 251.58 963.41 280.259 C 961.078 286.692 955.7 294.048 953.071 300.773 C 928.087 364.706 899.393 433.789 888.542 502.034 C 880.752 465.046 879.961 422.49 876.051 384.866 C 874.71 371.968 878.802 356.799 878.734 343.931 C 878.621 302.094 887.103 262.306 896.301 221.709 C 902.66 193.641 913.122 163.281 923.215 136.19 C 931.284 114.532 935.68 100.114 949.184 80.7081 C 959.981 65.1915 968.914 45.7974 981.378 30.8972 C 991.616 18.9543 1006.77 12.301 1018.28 0 z"/>
  <path transform="translate(0,0)" fill="#4b5563" d="M 0 873.932 C 12.49 861.107 19.7266 846.309 39.3646 845.61 C 47.2982 845.253 55.0132 848.265 60.6066 853.902 C 70.6582 864.007 71.017 876.094 68.3487 889.244 C 52.0725 907.637 37.5289 918.454 14.8845 898.597 C 9.59278 893.956 5.10672 887.389 0 883.085 L 0 873.932 z"/>
</svg>
